<mxfile host="app.diagrams.net" agent="Mozilla/5.0 (Windows NT 10.0; Win64; x64) AppleWebKit/537.36 (KHTML, like Gecko) Chrome/138.0.0.0 Safari/537.36 Edg/138.0.0.0" version="28.0.6">
  <diagram id="sszE3lQnOYNltIFxNGAU" name="Page-1">
    <mxGraphModel dx="938" dy="666" grid="1" gridSize="10" guides="1" tooltips="1" connect="1" arrows="1" fold="1" page="1" pageScale="1" pageWidth="850" pageHeight="1100" math="0" shadow="0">
      <root>
        <mxCell id="0" />
        <mxCell id="1" parent="0" />
        <mxCell id="F79hc2lxjA226jXwUd14-56" value="" style="edgeStyle=orthogonalEdgeStyle;rounded=0;orthogonalLoop=1;jettySize=auto;html=1;" edge="1" parent="1" source="F79hc2lxjA226jXwUd14-38" target="F79hc2lxjA226jXwUd14-39">
          <mxGeometry relative="1" as="geometry" />
        </mxCell>
        <mxCell id="F79hc2lxjA226jXwUd14-38" value="Start" style="strokeWidth=2;html=1;shape=mxgraph.flowchart.start_1;whiteSpace=wrap;" vertex="1" parent="1">
          <mxGeometry x="390" y="40" width="100" height="60" as="geometry" />
        </mxCell>
        <mxCell id="F79hc2lxjA226jXwUd14-39" value="Main()" style="rounded=1;whiteSpace=wrap;html=1;absoluteArcSize=1;arcSize=14;strokeWidth=2;" vertex="1" parent="1">
          <mxGeometry x="390" y="140" width="100" height="100" as="geometry" />
        </mxCell>
        <mxCell id="F79hc2lxjA226jXwUd14-40" value="Create list of alpha + uppers" style="verticalLabelPosition=middle;verticalAlign=middle;html=1;shape=trapezoid;perimeter=trapezoidPerimeter;whiteSpace=wrap;size=0.23;arcSize=10;flipV=1;labelPosition=center;align=center;" vertex="1" parent="1">
          <mxGeometry x="370" y="320" width="140" height="100" as="geometry" />
        </mxCell>
        <mxCell id="F79hc2lxjA226jXwUd14-41" value="Create List of alpha" style="verticalLabelPosition=middle;verticalAlign=middle;html=1;shape=trapezoid;perimeter=trapezoidPerimeter;whiteSpace=wrap;size=0.23;arcSize=10;flipV=1;labelPosition=center;align=center;" vertex="1" parent="1">
          <mxGeometry x="230" y="320" width="100" height="60" as="geometry" />
        </mxCell>
        <mxCell id="F79hc2lxjA226jXwUd14-42" value="Create list of symbols" style="verticalLabelPosition=middle;verticalAlign=middle;html=1;shape=trapezoid;perimeter=trapezoidPerimeter;whiteSpace=wrap;size=0.23;arcSize=10;flipV=1;labelPosition=center;align=center;" vertex="1" parent="1">
          <mxGeometry x="550" y="320" width="100" height="60" as="geometry" />
        </mxCell>
        <mxCell id="F79hc2lxjA226jXwUd14-44" value="Function to create a dictionary using the [alpha + uppers] as keys and [symbols] as values" style="rounded=1;whiteSpace=wrap;html=1;absoluteArcSize=1;arcSize=14;strokeWidth=2;" vertex="1" parent="1">
          <mxGeometry x="240" y="520" width="400" height="70" as="geometry" />
        </mxCell>
        <mxCell id="F79hc2lxjA226jXwUd14-45" value="&quot;Encoding&quot; function to iterate over the content of a file and match the elements to the keys, Creating a new file that contains the values" style="rounded=1;whiteSpace=wrap;html=1;absoluteArcSize=1;arcSize=14;strokeWidth=2;" vertex="1" parent="1">
          <mxGeometry x="140" y="680" width="220" height="100" as="geometry" />
        </mxCell>
        <mxCell id="F79hc2lxjA226jXwUd14-46" value="&quot;Decoding&quot; function to iterate over the content of a file and match the elements to the values, Creating a new file that contains the keys" style="rounded=1;whiteSpace=wrap;html=1;absoluteArcSize=1;arcSize=14;strokeWidth=2;" vertex="1" parent="1">
          <mxGeometry x="520" y="680" width="220" height="100" as="geometry" />
        </mxCell>
        <mxCell id="F79hc2lxjA226jXwUd14-48" value="Ask user to upload a text file" style="shape=parallelogram;html=1;strokeWidth=2;perimeter=parallelogramPerimeter;whiteSpace=wrap;rounded=1;arcSize=12;size=0.23;" vertex="1" parent="1">
          <mxGeometry x="335" y="880" width="210" height="60" as="geometry" />
        </mxCell>
        <mxCell id="F79hc2lxjA226jXwUd14-50" value="Run encoding function on the file" style="rounded=1;whiteSpace=wrap;html=1;absoluteArcSize=1;arcSize=14;strokeWidth=2;" vertex="1" parent="1">
          <mxGeometry x="380" y="1040" width="120" height="100" as="geometry" />
        </mxCell>
        <mxCell id="F79hc2lxjA226jXwUd14-51" value="Save and display the encoded file" style="strokeWidth=2;html=1;shape=mxgraph.flowchart.merge_or_storage;whiteSpace=wrap;" vertex="1" parent="1">
          <mxGeometry x="257.5" y="1220" width="365" height="90" as="geometry" />
        </mxCell>
        <mxCell id="F79hc2lxjA226jXwUd14-52" value="Save and display the decoded file" style="strokeWidth=2;html=1;shape=mxgraph.flowchart.merge_or_storage;whiteSpace=wrap;" vertex="1" parent="1">
          <mxGeometry x="257.5" y="1560" width="365" height="90" as="geometry" />
        </mxCell>
        <mxCell id="F79hc2lxjA226jXwUd14-53" value="Run decoding function on the file" style="rounded=1;whiteSpace=wrap;html=1;absoluteArcSize=1;arcSize=14;strokeWidth=2;" vertex="1" parent="1">
          <mxGeometry x="380" y="1390" width="120" height="100" as="geometry" />
        </mxCell>
        <mxCell id="F79hc2lxjA226jXwUd14-54" value="End" style="strokeWidth=2;html=1;shape=mxgraph.flowchart.terminator;whiteSpace=wrap;" vertex="1" parent="1">
          <mxGeometry x="390" y="1760" width="100" height="60" as="geometry" />
        </mxCell>
        <mxCell id="F79hc2lxjA226jXwUd14-57" value="" style="endArrow=none;html=1;rounded=0;entryX=0.5;entryY=1;entryDx=0;entryDy=0;exitX=0.5;exitY=0;exitDx=0;exitDy=0;" edge="1" parent="1" source="F79hc2lxjA226jXwUd14-41" target="F79hc2lxjA226jXwUd14-39">
          <mxGeometry width="50" height="50" relative="1" as="geometry">
            <mxPoint x="410" y="330" as="sourcePoint" />
            <mxPoint x="460" y="280" as="targetPoint" />
          </mxGeometry>
        </mxCell>
        <mxCell id="F79hc2lxjA226jXwUd14-58" value="" style="endArrow=none;html=1;rounded=0;exitX=0.5;exitY=0;exitDx=0;exitDy=0;" edge="1" parent="1" source="F79hc2lxjA226jXwUd14-42">
          <mxGeometry width="50" height="50" relative="1" as="geometry">
            <mxPoint x="410" y="330" as="sourcePoint" />
            <mxPoint x="440" y="240" as="targetPoint" />
          </mxGeometry>
        </mxCell>
        <mxCell id="F79hc2lxjA226jXwUd14-59" value="" style="endArrow=none;html=1;rounded=0;entryX=0.5;entryY=1;entryDx=0;entryDy=0;exitX=0.5;exitY=0;exitDx=0;exitDy=0;" edge="1" parent="1" source="F79hc2lxjA226jXwUd14-40" target="F79hc2lxjA226jXwUd14-39">
          <mxGeometry width="50" height="50" relative="1" as="geometry">
            <mxPoint x="410" y="330" as="sourcePoint" />
            <mxPoint x="440" y="250" as="targetPoint" />
          </mxGeometry>
        </mxCell>
        <mxCell id="F79hc2lxjA226jXwUd14-60" value="" style="endArrow=classic;html=1;rounded=0;entryX=0.5;entryY=0;entryDx=0;entryDy=0;exitX=0.5;exitY=1;exitDx=0;exitDy=0;" edge="1" parent="1" source="F79hc2lxjA226jXwUd14-41" target="F79hc2lxjA226jXwUd14-44">
          <mxGeometry width="50" height="50" relative="1" as="geometry">
            <mxPoint x="410" y="650" as="sourcePoint" />
            <mxPoint x="460" y="600" as="targetPoint" />
          </mxGeometry>
        </mxCell>
        <mxCell id="F79hc2lxjA226jXwUd14-61" value="" style="endArrow=classic;html=1;rounded=0;entryX=0.5;entryY=0;entryDx=0;entryDy=0;exitX=0.5;exitY=1;exitDx=0;exitDy=0;" edge="1" parent="1" source="F79hc2lxjA226jXwUd14-40" target="F79hc2lxjA226jXwUd14-44">
          <mxGeometry width="50" height="50" relative="1" as="geometry">
            <mxPoint x="410" y="650" as="sourcePoint" />
            <mxPoint x="460" y="600" as="targetPoint" />
          </mxGeometry>
        </mxCell>
        <mxCell id="F79hc2lxjA226jXwUd14-62" value="" style="endArrow=classic;html=1;rounded=0;entryX=0.5;entryY=0;entryDx=0;entryDy=0;exitX=0.5;exitY=1;exitDx=0;exitDy=0;" edge="1" parent="1" source="F79hc2lxjA226jXwUd14-42" target="F79hc2lxjA226jXwUd14-44">
          <mxGeometry width="50" height="50" relative="1" as="geometry">
            <mxPoint x="410" y="650" as="sourcePoint" />
            <mxPoint x="460" y="600" as="targetPoint" />
          </mxGeometry>
        </mxCell>
        <mxCell id="F79hc2lxjA226jXwUd14-63" value="" style="endArrow=none;html=1;rounded=0;entryX=0.5;entryY=1;entryDx=0;entryDy=0;exitX=0.5;exitY=0;exitDx=0;exitDy=0;" edge="1" parent="1" source="F79hc2lxjA226jXwUd14-45" target="F79hc2lxjA226jXwUd14-44">
          <mxGeometry width="50" height="50" relative="1" as="geometry">
            <mxPoint x="410" y="650" as="sourcePoint" />
            <mxPoint x="460" y="600" as="targetPoint" />
          </mxGeometry>
        </mxCell>
        <mxCell id="F79hc2lxjA226jXwUd14-64" value="" style="endArrow=none;html=1;rounded=0;entryX=0.5;entryY=1;entryDx=0;entryDy=0;exitX=0.5;exitY=0;exitDx=0;exitDy=0;" edge="1" parent="1" source="F79hc2lxjA226jXwUd14-46" target="F79hc2lxjA226jXwUd14-44">
          <mxGeometry width="50" height="50" relative="1" as="geometry">
            <mxPoint x="410" y="650" as="sourcePoint" />
            <mxPoint x="460" y="600" as="targetPoint" />
          </mxGeometry>
        </mxCell>
        <mxCell id="F79hc2lxjA226jXwUd14-65" value="" style="endArrow=classic;html=1;rounded=0;entryX=0.5;entryY=0;entryDx=0;entryDy=0;exitX=0.5;exitY=1;exitDx=0;exitDy=0;" edge="1" parent="1" source="F79hc2lxjA226jXwUd14-45" target="F79hc2lxjA226jXwUd14-48">
          <mxGeometry width="50" height="50" relative="1" as="geometry">
            <mxPoint x="410" y="650" as="sourcePoint" />
            <mxPoint x="460" y="600" as="targetPoint" />
          </mxGeometry>
        </mxCell>
        <mxCell id="F79hc2lxjA226jXwUd14-66" value="" style="endArrow=classic;html=1;rounded=0;entryX=0.5;entryY=0;entryDx=0;entryDy=0;exitX=0.5;exitY=1;exitDx=0;exitDy=0;" edge="1" parent="1" source="F79hc2lxjA226jXwUd14-46" target="F79hc2lxjA226jXwUd14-48">
          <mxGeometry width="50" height="50" relative="1" as="geometry">
            <mxPoint x="410" y="650" as="sourcePoint" />
            <mxPoint x="460" y="600" as="targetPoint" />
          </mxGeometry>
        </mxCell>
        <mxCell id="F79hc2lxjA226jXwUd14-67" value="" style="endArrow=classic;html=1;rounded=0;entryX=0.5;entryY=0;entryDx=0;entryDy=0;exitX=0.5;exitY=1;exitDx=0;exitDy=0;" edge="1" parent="1" source="F79hc2lxjA226jXwUd14-48" target="F79hc2lxjA226jXwUd14-50">
          <mxGeometry width="50" height="50" relative="1" as="geometry">
            <mxPoint x="430" y="1160" as="sourcePoint" />
            <mxPoint x="480" y="1110" as="targetPoint" />
          </mxGeometry>
        </mxCell>
        <mxCell id="F79hc2lxjA226jXwUd14-68" value="" style="endArrow=classic;html=1;rounded=0;entryX=0.5;entryY=0;entryDx=0;entryDy=0;entryPerimeter=0;exitX=0.5;exitY=1;exitDx=0;exitDy=0;" edge="1" parent="1" source="F79hc2lxjA226jXwUd14-50" target="F79hc2lxjA226jXwUd14-51">
          <mxGeometry width="50" height="50" relative="1" as="geometry">
            <mxPoint x="430" y="1160" as="sourcePoint" />
            <mxPoint x="480" y="1110" as="targetPoint" />
          </mxGeometry>
        </mxCell>
        <mxCell id="F79hc2lxjA226jXwUd14-69" value="" style="endArrow=classic;html=1;rounded=0;exitX=0.5;exitY=1;exitDx=0;exitDy=0;exitPerimeter=0;entryX=0.5;entryY=0;entryDx=0;entryDy=0;" edge="1" parent="1" source="F79hc2lxjA226jXwUd14-51" target="F79hc2lxjA226jXwUd14-53">
          <mxGeometry width="50" height="50" relative="1" as="geometry">
            <mxPoint x="420" y="1410" as="sourcePoint" />
            <mxPoint x="470" y="1360" as="targetPoint" />
          </mxGeometry>
        </mxCell>
        <mxCell id="F79hc2lxjA226jXwUd14-70" value="" style="endArrow=classic;html=1;rounded=0;entryX=0.5;entryY=0;entryDx=0;entryDy=0;entryPerimeter=0;exitX=0.5;exitY=1;exitDx=0;exitDy=0;" edge="1" parent="1" source="F79hc2lxjA226jXwUd14-53" target="F79hc2lxjA226jXwUd14-52">
          <mxGeometry width="50" height="50" relative="1" as="geometry">
            <mxPoint x="420" y="1430" as="sourcePoint" />
            <mxPoint x="470" y="1360" as="targetPoint" />
          </mxGeometry>
        </mxCell>
        <mxCell id="F79hc2lxjA226jXwUd14-71" value="" style="endArrow=classic;html=1;rounded=0;exitX=0.5;exitY=1;exitDx=0;exitDy=0;exitPerimeter=0;entryX=0.5;entryY=0;entryDx=0;entryDy=0;entryPerimeter=0;" edge="1" parent="1" source="F79hc2lxjA226jXwUd14-52" target="F79hc2lxjA226jXwUd14-54">
          <mxGeometry width="50" height="50" relative="1" as="geometry">
            <mxPoint x="410" y="1770" as="sourcePoint" />
            <mxPoint x="460" y="1720" as="targetPoint" />
          </mxGeometry>
        </mxCell>
      </root>
    </mxGraphModel>
  </diagram>
</mxfile>
